<svg xmlns="http://www.w3.org/2000/svg" viewBox="0 0 128 128" role="img" aria-label="Sarrus icon">
  <rect width="128" height="128" rx="20" fill="#e6dacb"/>
  <rect x="8" y="8" width="112" height="112" rx="15" fill="none" stroke="#cbbba8" stroke-width="2" opacity=".95"/>
  <g transform="translate(0 -1)"><rect x="24" y="31" width="80" height="15" rx="5" fill="#6f8a72" transform="rotate(-5 64 38.5)"/><rect x="23" y="56" width="83" height="15" rx="5" fill="#755338" transform="rotate(4 64 63.5)"/><rect x="25" y="81" width="78" height="15" rx="5" fill="#556580" transform="rotate(-3 64 88.5)"/><circle cx="28" cy="39" r="10" fill="#27211d"/><circle cx="103" cy="33" r="10" fill="#27211d"/><circle cx="26" cy="64" r="10" fill="#27211d"/><circle cx="104" cy="70" r="10" fill="#27211d"/><circle cx="31" cy="90" r="10" fill="#27211d"/><circle cx="100" cy="85" r="10" fill="#27211d"/><circle cx="28" cy="39" r="4" fill="#fffaf0"/><circle cx="104" cy="70" r="4" fill="#fffaf0"/><circle cx="100" cy="85" r="4" fill="#fffaf0"/></g>
</svg>
